# xmcd
#
# Track frame offsets: 
#        150
#        14308
#        29212
#        51943
#        68987
#        107439
#        123523
#        136527
#        154370
#        164929
#        198197
#        214330
#        230913
#        244659
#        258368
#        268960
#        283055
#
# Disc length: 3983 seconds
#
# Revision: 3
# Processed by: cddbd v1.5.2PL0 Copyright (c) Steve Scherf et al.
# Submitted via: ExactAudioCopy v0.99pb4
#
DISCID=0c0f8d11
DTITLE=Blues 'n' Trouble - Live
DYEAR=1998
DGENRE=Blues
TTITLE0=Clock on the wall
TTITLE1=Born in Chicago
TTITLE2=Cherry peaches
TTITLE3=Sugar coated love
TTITLE4=BNT blues
TTITLE5=What's the matter
TTITLE6=Why
TTITLE7=Travelling light
TTITLE8=Honey pot
TTITLE9=Driftin' blues
TTITLE10=See my baby shake it
TTITLE11=Madison blues
TTITLE12=Lying on the kitchen floor
TTITLE13=Sloppy drunk
TTITLE14=Deep blue feeling
TTITLE15=Spank the plank
TTITLE16=Born in Chicago (studio version)
EXTD=Universe CDSP 8895-2
EXTT0=
EXTT1=
EXTT2=
EXTT3=
EXTT4=
EXTT5=
EXTT6=
EXTT7=
EXTT8=
EXTT9=
EXTT10=
EXTT11=
EXTT12=
EXTT13=
EXTT14=
EXTT15=
EXTT16=
PLAYORDER=
